<svg width="13" height="12" viewBox="0 0 13 12" fill="none" xmlns="http://www.w3.org/2000/svg">
<path d="M9.95251 7.35338C9.80143 7.4998 9.73201 7.71155 9.76643 7.91921L10.285 10.7892C10.3288 11.0325 10.2261 11.2786 10.0225 11.4192C9.82301 11.565 9.5576 11.5825 9.34001 11.4659L6.75643 10.1184C6.6666 10.0705 6.56685 10.0449 6.46476 10.042H6.30668C6.25185 10.0501 6.19818 10.0676 6.14918 10.0945L3.56501 11.4484C3.43726 11.5125 3.2926 11.5353 3.15085 11.5125C2.80551 11.4472 2.5751 11.1182 2.63168 10.7711L3.15085 7.90113C3.18526 7.69171 3.11585 7.4788 2.96476 7.33005L0.858348 5.28838C0.682181 5.11746 0.620931 4.8608 0.701431 4.62921C0.779598 4.39821 0.979098 4.22963 1.22001 4.19171L4.11918 3.77113C4.33968 3.74838 4.53335 3.61421 4.63251 3.41588L5.91001 0.796715C5.94035 0.738382 5.97943 0.684715 6.02668 0.639215L6.07918 0.598382C6.1066 0.568048 6.1381 0.542965 6.1731 0.522548L6.23668 0.499215L6.33585 0.458382H6.58143C6.80076 0.481132 6.99385 0.612382 7.09476 0.808382L8.38918 3.41588C8.48251 3.60663 8.66393 3.73905 8.87335 3.77113L11.7725 4.19171C12.0175 4.22671 12.2223 4.39588 12.3033 4.62921C12.3798 4.86313 12.3138 5.1198 12.1342 5.28838L9.95251 7.35338Z" fill="#F2C94C"/>
</svg>
